<?xml version="1.0" encoding="UTF-8" standalone="no"?>
<!-- Created with Inkscape (http://www.inkscape.org/) -->

<svg
   width="512"
   height="512"
   viewBox="0 0 135.46666 135.46667"
   version="1.1"
   id="svg1"
   sodipodi:docname="logo.svg"
   inkscape:version="1.3.2 (091e20e, 2023-11-25)"
   xmlns:inkscape="http://www.inkscape.org/namespaces/inkscape"
   xmlns:sodipodi="http://sodipodi.sourceforge.net/DTD/sodipodi-0.dtd"
   xmlns="http://www.w3.org/2000/svg"
   xmlns:svg="http://www.w3.org/2000/svg">
  <sodipodi:namedview
     id="namedview1"
     pagecolor="#505050"
     bordercolor="#ffffff"
     borderopacity="1"
     inkscape:showpageshadow="0"
     inkscape:pageopacity="0"
     inkscape:pagecheckerboard="1"
     inkscape:deskcolor="#d1d1d1"
     inkscape:document-units="mm"
     showguides="false"
     inkscape:zoom="0.71320767"
     inkscape:cx="241.86504"
     inkscape:cy="199.10049"
     inkscape:window-width="1512"
     inkscape:window-height="847"
     inkscape:window-x="0"
     inkscape:window-y="38"
     inkscape:window-maximized="0"
     inkscape:current-layer="layer1">
    <sodipodi:guide
       position="0,135.46666"
       orientation="0,512"
       id="guide15"
       inkscape:locked="false" />
    <sodipodi:guide
       position="135.46666,135.46666"
       orientation="512,0"
       id="guide16"
       inkscape:locked="false" />
    <sodipodi:guide
       position="135.46666,0"
       orientation="0,-512"
       id="guide17"
       inkscape:locked="false" />
    <sodipodi:guide
       position="0,0"
       orientation="-512,0"
       id="guide18"
       inkscape:locked="false" />
  </sodipodi:namedview>
  <defs
     id="defs1">
    <inkscape:path-effect
       effect="fillet_chamfer"
       id="path-effect1"
       is_visible="true"
       lpeversion="1"
       nodesatellites_param="F,0,0,1,0,1.8447071,0,1 @ F,0,0,1,0,1.9427374,0,1 @ F,0,0,1,0,2.0371658,0,1 @ F,0,0,1,0,1.9062875,0,1"
       radius="0"
       unit="px"
       method="auto"
       mode="F"
       chamfer_steps="1"
       flexible="false"
       use_knot_distance="true"
       apply_no_radius="true"
       apply_with_radius="true"
       only_selected="false"
       hide_knots="false" />
  </defs>
  <g
     inkscape:label="Layer 1"
     inkscape:groupmode="layer"
     id="layer1">
    <path
       style="fill:none;stroke:#f44444;stroke-width:10;stroke-linecap:butt;stroke-linejoin:miter;stroke-dasharray:none;stroke-opacity:1"
       d="m 17.647147,51.872386 c -6.599268,-52.17343103 49.38735,-70.49578 48.973634,0.786735"
       id="path14"
       sodipodi:nodetypes="cc" />
    <path
       id="path5"
       style="fill:#f44444;fill-opacity:1;stroke:none;stroke-width:0;stroke-dasharray:none"
       d="M 52.151339 48.672998 L 33.060514 91.634717 L 52.151339 134.59592 L 101.75916 134.59592 L 120.84947 91.634717 L 101.75916 48.672998 L 52.151339 48.672998 z M 62.145044 62.968766 L 73.645117 85.968913 L 50.644971 85.968913 L 62.145044 62.968766 z M 87.111995 62.968766 L 94.349797 62.968766 A 2.3020587 4.4122789 0 0 1 96.651982 67.381417 L 96.651982 81.699406 A 2.2276934 4.2697454 0 0 1 94.424211 85.968913 L 86.998307 85.968913 A 2.3460761 4.4966456 0 0 1 84.652197 81.47203 L 84.652197 67.684241 A 2.4601091 4.7152089 0 0 1 87.111995 62.968766 z M 62.145044 97.300004 A 11.5 11.5 0 0 1 73.645117 108.80008 A 11.5 11.5 0 0 1 62.145044 120.30015 A 11.5 11.5 0 0 1 50.644971 108.80008 A 11.5 11.5 0 0 1 62.145044 97.300004 z M 91.882247 97.300004 L 103.47792 105.91498 L 99.240454 120.12962 L 85.025818 120.30015 L 80.478292 106.19093 L 91.882247 97.300004 z " />
  </g>
</svg>
